<svg width="22" height="22" viewBox="0 0 22 22" fill="none" xmlns="http://www.w3.org/2000/svg">
<g clip-path="url(#clip0_3_299)">
<path d="M5.25 14.7659V14.7645C5.98246 13.972 6.87083 13.3395 7.85936 12.9067C8.84963 12.4731 9.91896 12.2492 11 12.2492C12.081 12.2492 13.1504 12.4731 14.1406 12.9067C15.1288 13.3394 16.0169 13.9716 16.7493 14.7637C16.7496 14.7642 16.7498 14.7647 16.75 14.7652V17.75H5.25V14.7659ZM5.25 14.7659C5.24998 14.7661 5.24997 14.7662 5.24997 14.7664L5.24827 14.7664C5.24756 14.7671 5.24685 14.7679 5.24614 14.7687L5.24358 14.7663L4.5 14.76M5.25 14.7659C5.25011 14.7648 5.25055 14.7638 5.25126 14.7631L5.25 14.7619V14.76H5.24788L4.695 14.26M4.5 14.76H5.23674L4.695 14.26M4.5 14.76C4.50157 14.5751 4.57096 14.3972 4.695 14.26M4.5 14.76L17.305 14.26C16.5016 13.3895 15.5266 12.6948 14.4415 12.2197C13.3563 11.7445 12.1846 11.4992 11 11.4992C9.81541 11.4992 8.64365 11.7445 7.55853 12.2197C6.4734 12.6948 5.49843 13.3895 4.695 14.26" stroke="#83888B" stroke-width="1.5"/>
<path d="M13.75 7C13.75 8.51878 12.5188 9.75 11 9.75C9.48122 9.75 8.25 8.51878 8.25 7C8.25 5.48122 9.48122 4.25 11 4.25C12.5188 4.25 13.75 5.48122 13.75 7Z" stroke="#83888B" stroke-width="1.5"/>
<path d="M17.3347 2.86374C17.8313 4.02703 18.6982 4.99371 19.8008 5.61357C19.8193 5.62396 19.8348 5.63911 19.8455 5.65744C19.8562 5.67578 19.8619 5.69665 19.8619 5.7179C19.8619 5.73915 19.8562 5.76001 19.8455 5.77835C19.8348 5.79669 19.8193 5.81183 19.8008 5.82222C18.6982 6.44216 17.8312 7.40899 17.3347 8.57243C17.3249 8.59451 17.3089 8.61327 17.2886 8.62644C17.2684 8.63961 17.2447 8.64662 17.2206 8.64662C17.1964 8.64662 17.1728 8.63961 17.1525 8.62644C17.1322 8.61327 17.1162 8.59451 17.1064 8.57243C16.6099 7.40899 15.743 6.44216 14.6403 5.82222C14.6218 5.81183 14.6064 5.79669 14.5956 5.77835C14.5849 5.76001 14.5792 5.73915 14.5792 5.7179C14.5792 5.69665 14.5849 5.67578 14.5956 5.65744C14.6064 5.63911 14.6218 5.62396 14.6403 5.61357C15.7429 4.99371 16.6098 4.02703 17.1064 2.86374C17.1162 2.84166 17.1322 2.8229 17.1525 2.80973C17.1728 2.79656 17.1964 2.78955 17.2206 2.78955C17.2447 2.78955 17.2684 2.79656 17.2886 2.80973C17.3089 2.8229 17.3249 2.84166 17.3347 2.86374Z" fill="#83888B"/>
</g>
<defs>
<clipPath id="clip0_3_299">
<rect width="18" height="18" fill="white" transform="translate(2 2)"/>
</clipPath>
</defs>
</svg>
