<svg width="22" height="22" viewBox="0 0 22 22" fill="none" xmlns="http://www.w3.org/2000/svg">
<path d="M4 4C4.25 5.5 4.5 6.25 4.75 8C4.95 9.4 5 11.5835 5 12.5C3.9165 13 1.5 14 1.5 16C1.5 18 4 20.5 11 20.5C18 20.5 20.5 18 20.5 16C20.5 14 17 12.5 17 12.5C17 12.5 17 9.75 17.25 8C17.5 6.25 17.75 5.5 18 4" stroke="#FF4D00" stroke-width="2" stroke-linecap="round" stroke-linejoin="round"/>
<path d="M17 12.5C17 14.5 16.5 16.5 10.75 16.5" stroke="#FF4D00" stroke-width="2" stroke-linecap="round" stroke-linejoin="round"/>
<path d="M11 6.5C14.866 6.5 18 5.38071 18 4C18 2.61929 14.866 1.5 11 1.5C7.13401 1.5 4 2.61929 4 4C4 5.38071 7.13401 6.5 11 6.5Z" stroke="#FF4D00" stroke-width="2"/>
</svg>
