<svg width="16" height="16" viewBox="0 0 16 16" fill="none" xmlns="http://www.w3.org/2000/svg">
<path d="M3.33341 3.33334C3.50008 4.33334 3.66675 4.83334 3.83341 6.00001C3.96675 6.93334 4.00008 8.38901 4.00008 9.00001C3.27775 9.33334 1.66675 10 1.66675 11.3333C1.66675 12.6667 3.33341 14.3333 8.00008 14.3333C12.6667 14.3333 14.3334 12.6667 14.3334 11.3333C14.3334 10 12.0001 9.00001 12.0001 9.00001C12.0001 9.00001 12.0001 7.16668 12.1667 6.00001C12.3334 4.83334 12.5001 4.33334 12.6667 3.33334" stroke="#FF4D00" stroke-width="1.33333" stroke-linecap="round" stroke-linejoin="round"/>
<path d="M12.0002 9.00001C12.0002 10.3333 11.6668 11.6667 7.8335 11.6667" stroke="#FF4D00" stroke-width="1.33333" stroke-linecap="round" stroke-linejoin="round"/>
<path d="M8.00016 5.00001C10.5775 5.00001 12.6668 4.25381 12.6668 3.33334C12.6668 2.41286 10.5775 1.66667 8.00016 1.66667C5.42283 1.66667 3.3335 2.41286 3.3335 3.33334C3.3335 4.25381 5.42283 5.00001 8.00016 5.00001Z" stroke="#FF4D00" stroke-width="1.33333"/>
</svg>
