<svg width="85" height="15" viewBox="0 0 85 15" fill="none" xmlns="http://www.w3.org/2000/svg">
<path d="M6.04 14.0993L0.928 1.49933H3.754L7.606 11.4173L11.548 1.49933H14.248L9.064 14.0993H6.04ZM14.6156 14.0993V4.72133H17.0816V14.0993H14.6156ZM15.8396 3.60533C15.4556 3.60533 15.1256 3.46733 14.8496 3.19133C14.5736 2.91533 14.4356 2.58533 14.4356 2.20133C14.4356 1.80533 14.5736 1.47533 14.8496 1.21133C15.1256 0.935334 15.4556 0.797334 15.8396 0.797334C16.2356 0.797334 16.5656 0.935334 16.8296 1.21133C17.1056 1.47533 17.2436 1.80533 17.2436 2.20133C17.2436 2.58533 17.1056 2.91533 16.8296 3.19133C16.5656 3.46733 16.2356 3.60533 15.8396 3.60533ZM22.8081 14.2253C21.9201 14.2253 21.1161 14.0093 20.3961 13.5773C19.6761 13.1453 19.1001 12.5693 18.6681 11.8493C18.2481 11.1173 18.0381 10.3013 18.0381 9.40133C18.0381 8.50133 18.2481 7.69133 18.6681 6.97133C19.1001 6.23933 19.6821 5.66333 20.4141 5.24333C21.1461 4.81133 21.9681 4.59533 22.8801 4.59533C23.3481 4.59533 23.7981 4.66133 24.2301 4.79333C24.6621 4.91333 25.0641 5.09333 25.4361 5.33333V1.49933L27.9021 1.08533V14.0993H25.4721V13.3253C24.7041 13.9253 23.8161 14.2253 22.8081 14.2253ZM23.2041 12.1193C23.6601 12.1193 24.0741 12.0413 24.4461 11.8853C24.8301 11.7293 25.1601 11.5073 25.4361 11.2193V7.56533C25.1601 7.28933 24.8301 7.07333 24.4461 6.91733C24.0621 6.76133 23.6481 6.68333 23.2041 6.68333C22.6881 6.68333 22.2201 6.80333 21.8001 7.04333C21.3921 7.27133 21.0681 7.59533 20.8281 8.01533C20.5881 8.42333 20.4681 8.88533 20.4681 9.40133C20.4681 9.91733 20.5881 10.3793 20.8281 10.7873C21.0681 11.1953 21.3921 11.5193 21.8001 11.7593C22.2201 11.9993 22.6881 12.1193 23.2041 12.1193ZM33.8932 14.2793C32.9572 14.2793 32.1052 14.0633 31.3372 13.6313C30.5812 13.1993 29.9812 12.6173 29.5372 11.8853C29.0932 11.1533 28.8712 10.3313 28.8712 9.41933C28.8712 8.50733 29.0812 7.68533 29.5012 6.95333C29.9332 6.22133 30.5152 5.63933 31.2472 5.20733C31.9792 4.77533 32.7952 4.55933 33.6952 4.55933C34.5952 4.55933 35.3932 4.78133 36.0892 5.22533C36.7852 5.66933 37.3312 6.26933 37.7272 7.02533C38.1352 7.78133 38.3392 8.63933 38.3392 9.59933V10.2473H31.3912C31.4992 10.6193 31.6732 10.9553 31.9132 11.2553C32.1652 11.5553 32.4712 11.7893 32.8312 11.9573C33.2032 12.1253 33.5992 12.2093 34.0192 12.2093C34.4392 12.2093 34.8232 12.1433 35.1712 12.0113C35.5312 11.8793 35.8372 11.6933 36.0892 11.4533L37.7092 12.9293C37.1332 13.3973 36.5392 13.7393 35.9272 13.9553C35.3272 14.1713 34.6492 14.2793 33.8932 14.2793ZM31.3552 8.48333H35.9092C35.8252 8.11133 35.6692 7.78733 35.4412 7.51133C35.2252 7.22333 34.9612 7.00133 34.6492 6.84533C34.3492 6.67733 34.0132 6.59333 33.6412 6.59333C33.2572 6.59333 32.9092 6.67133 32.5972 6.82733C32.2972 6.98333 32.0392 7.20533 31.8232 7.49333C31.6072 7.76933 31.4512 8.09933 31.3552 8.48333ZM43.9524 14.2793C43.0164 14.2793 42.1704 14.0633 41.4144 13.6313C40.6584 13.1993 40.0584 12.6173 39.6144 11.8853C39.1704 11.1533 38.9484 10.3313 38.9484 9.41933C38.9484 8.50733 39.1644 7.68533 39.5964 6.95333C40.0404 6.20933 40.6404 5.62133 41.3964 5.18933C42.1644 4.75733 43.0164 4.54133 43.9524 4.54133C44.8884 4.54133 45.7344 4.75733 46.4904 5.18933C47.2584 5.62133 47.8584 6.20933 48.2904 6.95333C48.7344 7.68533 48.9564 8.50733 48.9564 9.41933C48.9564 10.3313 48.7344 11.1533 48.2904 11.8853C47.8584 12.6173 47.2644 13.1993 46.5084 13.6313C45.7524 14.0633 44.9004 14.2793 43.9524 14.2793ZM43.9524 12.1373C44.4444 12.1373 44.8824 12.0173 45.2664 11.7773C45.6624 11.5373 45.9744 11.2133 46.2024 10.8053C46.4424 10.3853 46.5624 9.92333 46.5624 9.41933C46.5624 8.90333 46.4424 8.44133 46.2024 8.03333C45.9744 7.62533 45.6624 7.30133 45.2664 7.06133C44.8824 6.80933 44.4444 6.68333 43.9524 6.68333C43.4724 6.68333 43.0344 6.80933 42.6384 7.06133C42.2424 7.30133 41.9304 7.62533 41.7024 8.03333C41.4744 8.44133 41.3604 8.90333 41.3604 9.41933C41.3604 9.92333 41.4744 10.3853 41.7024 10.8053C41.9304 11.2133 42.2424 11.5373 42.6384 11.7773C43.0344 12.0173 43.4724 12.1373 43.9524 12.1373Z" fill="#3C3C3C"/>
<path d="M53.4092 14.0993L54.9572 6.77333H52.9232L53.3552 4.72133H55.3892L55.6412 3.56933C55.8572 2.59733 56.2832 1.85333 56.9192 1.33733C57.5552 0.821334 58.3772 0.563334 59.3852 0.563334C59.6852 0.563334 59.9972 0.587334 60.3212 0.635334C60.6572 0.683334 60.9272 0.755334 61.1312 0.851334L60.7172 2.90333C60.5132 2.83133 60.3092 2.77733 60.1052 2.74133C59.9012 2.70533 59.6852 2.68733 59.4572 2.68733C59.0492 2.68733 58.7252 2.77733 58.4852 2.95733C58.2572 3.13733 58.1012 3.41933 58.0172 3.80333L57.8192 4.72133H60.3032L59.8712 6.77333H57.3872L55.8212 14.0993H53.4092ZM62.3903 14.2073C61.4183 14.2073 60.6443 13.9733 60.0683 13.5053C59.4923 13.0253 59.2043 12.3893 59.2043 11.5973C59.2043 10.9493 59.3603 10.3973 59.6723 9.94133C59.9963 9.48533 60.4523 9.13133 61.0403 8.87933C61.6283 8.62733 62.3303 8.50133 63.1463 8.50133C63.5903 8.50133 64.0283 8.54333 64.4603 8.62733C64.9043 8.71133 65.3183 8.83133 65.7023 8.98733L65.8103 8.50133C65.9423 7.86533 65.8463 7.39133 65.5223 7.07933C65.2103 6.75533 64.6703 6.59333 63.9023 6.59333C63.5543 6.59333 63.1703 6.64133 62.7503 6.73733C62.3423 6.83333 61.8443 6.98933 61.2563 7.20533L60.6623 5.35133C61.3583 5.07533 62.0183 4.87733 62.6423 4.75733C63.2663 4.62533 63.8603 4.55933 64.4243 4.55933C65.3723 4.55933 66.1523 4.71533 66.7643 5.02733C67.3883 5.33933 67.8263 5.78933 68.0783 6.37733C68.3303 6.95333 68.3663 7.64933 68.1863 8.46533L66.9983 14.0993H64.6223L64.7303 13.5233C64.3583 13.7513 63.9803 13.9253 63.5963 14.0453C63.2123 14.1533 62.8103 14.2073 62.3903 14.2073ZM63.2183 12.4613C63.5543 12.4613 63.8783 12.4193 64.1903 12.3353C64.5023 12.2393 64.7963 12.1073 65.0723 11.9393L65.3783 10.5713C64.7543 10.2713 64.0703 10.1213 63.3263 10.1213C62.7623 10.1213 62.3123 10.2353 61.9763 10.4633C61.6523 10.6913 61.4903 10.9973 61.4903 11.3813C61.4903 11.7173 61.6403 11.9813 61.9403 12.1733C62.2523 12.3653 62.6783 12.4613 63.2183 12.4613ZM72.4149 14.2973C71.5509 14.2973 70.7229 14.1533 69.9309 13.8653C69.1389 13.5773 68.4849 13.1873 67.9689 12.6953L69.3549 11.1293C69.8589 11.5613 70.3629 11.8853 70.8669 12.1013C71.3829 12.3173 71.9049 12.4253 72.4329 12.4253C72.9249 12.4253 73.3209 12.3293 73.6209 12.1373C73.9329 11.9453 74.0889 11.6993 74.0889 11.3993C74.0889 11.1833 74.0049 11.0093 73.8369 10.8773C73.6689 10.7453 73.4109 10.6373 73.0629 10.5533L71.3349 10.1753C70.5669 10.0073 69.9789 9.70733 69.5709 9.27533C69.1749 8.84333 68.9769 8.29733 68.9769 7.63733C68.9769 7.00133 69.1269 6.46133 69.4269 6.01733C69.7269 5.56133 70.1529 5.20733 70.7049 4.95533C71.2689 4.70333 71.9289 4.57733 72.6849 4.57733C73.4409 4.57733 74.1669 4.70333 74.8629 4.95533C75.5589 5.19533 76.1829 5.54933 76.7349 6.01733L75.3849 7.51133C74.9169 7.15133 74.4369 6.88133 73.9449 6.70133C73.4649 6.50933 72.9909 6.41333 72.5229 6.41333C72.0909 6.41333 71.7489 6.49733 71.4969 6.66533C71.2449 6.83333 71.1189 7.06133 71.1189 7.34933C71.1189 7.57733 71.2029 7.76333 71.3709 7.90733C71.5509 8.03933 71.8389 8.14733 72.2349 8.23133L73.9449 8.60933C74.7369 8.77733 75.3429 9.07733 75.7629 9.50933C76.1829 9.94133 76.3929 10.4753 76.3929 11.1113C76.3929 11.7113 76.2189 12.2513 75.8709 12.7313C75.5229 13.2113 75.0489 13.5953 74.4489 13.8833C73.8489 14.1593 73.1709 14.2973 72.4149 14.2973ZM80.4794 14.2253C79.4234 14.2253 78.6614 13.9733 78.1934 13.4693C77.7374 12.9653 77.6114 12.2453 77.8154 11.3093L78.7694 6.77333H76.8794L77.3114 4.72133H79.2014L79.7054 2.32733L82.2434 1.76933L81.6134 4.72133H84.2234L83.7914 6.77333H81.1814L80.2814 10.8953C80.1974 11.3513 80.2454 11.6813 80.4254 11.8853C80.6054 12.0773 80.9534 12.1733 81.4694 12.1733C81.6614 12.1733 81.8474 12.1613 82.0274 12.1373C82.2074 12.1133 82.4054 12.0773 82.6214 12.0293L82.1894 14.0273C81.9734 14.0753 81.7034 14.1173 81.3794 14.1533C81.0554 14.2013 80.7554 14.2253 80.4794 14.2253Z" fill="#4559E8"/>
</svg>
