<svg width="16" height="16" viewBox="0 0 16 16" fill="none" xmlns="http://www.w3.org/2000/svg">
<path d="M7.99992 14.5953C4.31792 14.5953 1.33325 11.6107 1.33325 7.92866C1.33325 4.24733 4.31792 1.26199 7.99992 1.26199C11.6819 1.26199 14.6666 4.24733 14.6666 7.92866C14.6666 11.6107 11.6819 14.5953 7.99992 14.5953ZM7.99992 4.59533C7.82311 4.59533 7.65354 4.66556 7.52851 4.79059C7.40349 4.91561 7.33325 5.08518 7.33325 5.26199V8.59533C7.33325 8.77214 7.40349 8.94171 7.52851 9.06673C7.65354 9.19176 7.82311 9.26199 7.99992 9.26199C8.17673 9.26199 8.3463 9.19176 8.47132 9.06673C8.59635 8.94171 8.66659 8.77214 8.66659 8.59533V5.26199C8.66659 5.08518 8.59635 4.91561 8.47132 4.79059C8.3463 4.66556 8.17673 4.59533 7.99992 4.59533ZM7.99992 11.262C8.17673 11.262 8.3463 11.1918 8.47132 11.0667C8.59635 10.9417 8.66659 10.7721 8.66659 10.5953C8.66659 10.4185 8.59635 10.2489 8.47132 10.1239C8.3463 9.9989 8.17673 9.92866 7.99992 9.92866C7.82311 9.92866 7.65354 9.9989 7.52851 10.1239C7.40349 10.2489 7.33325 10.4185 7.33325 10.5953C7.33325 10.7721 7.40349 10.9417 7.52851 11.0667C7.65354 11.1918 7.82311 11.262 7.99992 11.262Z" fill="#6A7383"/>
</svg>
