<svg width="18" height="18" viewBox="0 0 18 18" fill="none" xmlns="http://www.w3.org/2000/svg">
<g clip-path="url(#clip0_3_114)">
<path d="M16.1999 14.9344L15.6374 14.0625C15.5249 13.8938 15.4687 13.725 15.4687 13.5281V7.67813C15.4687 6.01876 14.7655 4.47188 13.4718 3.31876C12.4312 2.39063 11.0812 1.80001 9.64678 1.68751V1.12501C9.64678 0.787509 9.36553 0.478134 8.9999 0.478134C8.6624 0.478134 8.35303 0.759384 8.35303 1.12501V1.65938C8.29678 1.65938 8.24053 1.65938 8.18428 1.68751C4.92178 2.05313 2.4749 4.66876 2.4749 7.79063V13.5281C2.44678 13.8094 2.39053 13.95 2.33428 14.0344L1.7999 14.9344C1.63115 15.2156 1.63115 15.5531 1.7999 15.8344C1.96865 16.0875 2.2499 16.2563 2.55928 16.2563H8.38115V16.875C8.38115 17.2125 8.6624 17.5219 9.02803 17.5219C9.36553 17.5219 9.6749 17.2406 9.6749 16.875V16.2563H15.4687C15.778 16.2563 16.0593 16.0875 16.228 15.8344C16.3968 15.5531 16.3968 15.2156 16.1999 14.9344ZM3.23428 14.9906L3.43115 14.6531C3.5999 14.3719 3.68428 14.0344 3.74053 13.6406V7.79063C3.74053 5.31563 5.70928 3.23438 8.3249 2.95313C9.92803 2.78438 11.503 3.26251 12.6562 4.27501C13.6687 5.17501 14.2312 6.38438 14.2312 7.67813V13.5281C14.2312 13.95 14.3437 14.3438 14.5968 14.7375L14.7655 14.9906H3.23428Z" fill="#060B1E"/>
</g>
<defs>
<clipPath id="clip0_3_114">
<rect width="18" height="18" fill="white"/>
</clipPath>
</defs>
</svg>
