<svg width="22" height="22" viewBox="0 0 22 22" fill="none" xmlns="http://www.w3.org/2000/svg">
<g clip-path="url(#clip0_3_317)">
<path d="M11 6.5V15.5M13.25 9.125C13.25 8.09 12.2427 7.25 11 7.25C9.75725 7.25 8.75 8.09 8.75 9.125C8.75 10.16 9.75725 11 11 11C12.2427 11 13.25 11.84 13.25 12.875C13.25 13.91 12.2427 14.75 11 14.75C9.75725 14.75 8.75 13.91 8.75 12.875" stroke="#83888B" stroke-width="1.5" stroke-linecap="round"/>
<path d="M7.25 4.50351C8.38964 3.84418 9.68338 3.49798 11 3.50001C15.1423 3.50001 18.5 6.85776 18.5 11C18.5 15.1423 15.1423 18.5 11 18.5C6.85775 18.5 3.5 15.1423 3.5 11C3.5 9.63426 3.86525 8.35251 4.5035 7.25001" stroke="#83888B" stroke-width="1.5" stroke-linecap="round"/>
</g>
<defs>
<clipPath id="clip0_3_317">
<rect width="18" height="18" fill="white" transform="translate(2 2)"/>
</clipPath>
</defs>
</svg>
