<svg width="22" height="22" viewBox="0 0 22 22" fill="none" xmlns="http://www.w3.org/2000/svg">
<path fill-rule="evenodd" clip-rule="evenodd" d="M5.35995 3.2H5.29995C5.02515 3.2 4.78875 3.2 4.57995 3.2492C4.25671 3.32644 3.96117 3.49166 3.72607 3.72655C3.49096 3.96144 3.32548 4.25683 3.24795 4.58C3.19995 4.7888 3.19995 5.024 3.19995 5.3V8.3C3.19995 8.5748 3.19995 8.8112 3.24915 9.02C3.32639 9.34324 3.49161 9.63878 3.7265 9.87388C3.96139 10.109 4.25678 10.2745 4.57995 10.352C4.78875 10.4 5.02395 10.4 5.29995 10.4H8.29995C8.57475 10.4 8.81115 10.4 9.01995 10.3508C9.34319 10.2736 9.63873 10.1083 9.87383 9.87345C10.1089 9.63856 10.2744 9.34317 10.352 9.02C10.4 8.8112 10.4 8.576 10.4 8.3V5.3C10.4 5.0252 10.4 4.7888 10.3508 4.58C10.2735 4.25676 10.1083 3.96122 9.8734 3.72612C9.63851 3.49101 9.34312 3.32553 9.01995 3.248C8.81115 3.2 8.57595 3.2 8.29995 3.2H8.23995H5.35995ZM4.85955 4.4168C4.91115 4.4048 4.99155 4.4 5.35995 4.4H8.23995C8.60955 4.4 8.68875 4.4036 8.74035 4.4168C8.84815 4.44258 8.9467 4.49771 9.02507 4.57608C9.10344 4.65446 9.15857 4.75301 9.18435 4.8608C9.19635 4.9112 9.19995 4.9904 9.19995 5.36V8.24C9.19995 8.6096 9.19635 8.6888 9.18315 8.7404C9.15737 8.8482 9.10224 8.94675 9.02387 9.02512C8.9455 9.10349 8.84695 9.15862 8.73915 9.1844C8.68995 9.1952 8.61075 9.2 8.23995 9.2H5.35995C4.99035 9.2 4.91115 9.1964 4.85955 9.1832C4.75176 9.15742 4.65321 9.10229 4.57483 9.02392C4.49646 8.94555 4.44133 8.847 4.41555 8.7392C4.40475 8.69 4.39995 8.6108 4.39995 8.24V5.36C4.39995 4.9904 4.40355 4.9112 4.41675 4.8596C4.44253 4.7518 4.49766 4.65326 4.57603 4.57488C4.65441 4.49651 4.75296 4.44138 4.86075 4.4156M13.76 3.2H13.7C13.4252 3.2 13.1888 3.2 12.98 3.2492C12.6567 3.32644 12.3612 3.49166 12.1261 3.72655C11.891 3.96144 11.7255 4.25683 11.648 4.58C11.6 4.7888 11.6 5.024 11.6 5.3V8.3C11.6 8.5748 11.6 8.8112 11.6492 9.02C11.7264 9.34324 11.8916 9.63878 12.1265 9.87388C12.3614 10.109 12.6568 10.2745 12.98 10.352C13.1888 10.4 13.424 10.4 13.7 10.4H16.7C16.9748 10.4 17.2112 10.4 17.42 10.3508C17.7432 10.2736 18.0387 10.1083 18.2738 9.87345C18.5089 9.63856 18.6744 9.34317 18.752 9.02C18.8 8.8112 18.8 8.576 18.8 8.3V5.3C18.8 5.0252 18.8 4.7888 18.7508 4.58C18.6735 4.25676 18.5083 3.96122 18.2734 3.72612C18.0385 3.49101 17.7431 3.32553 17.42 3.248C17.2112 3.2 16.976 3.2 16.7 3.2H16.64H13.76ZM13.2596 4.4168C13.3112 4.4048 13.3916 4.4 13.76 4.4H16.64C17.0096 4.4 17.0888 4.4036 17.1404 4.4168C17.2481 4.44258 17.3467 4.49771 17.4251 4.57608C17.5034 4.65446 17.5586 4.75301 17.5844 4.8608C17.5964 4.9112 17.6 4.9904 17.6 5.36V8.24C17.6 8.6096 17.5952 8.6888 17.5832 8.7404C17.5574 8.8482 17.5022 8.94675 17.4239 9.02512C17.3455 9.10349 17.2469 9.15862 17.1392 9.1844C17.0888 9.1964 17.0096 9.2 16.64 9.2H13.76C13.3904 9.2 13.3112 9.1964 13.2596 9.1832C13.1518 9.15742 13.0532 9.10229 12.9748 9.02392C12.8965 8.94555 12.8413 8.847 12.8156 8.7392C12.8048 8.69 12.8 8.6108 12.8 8.24V5.36C12.8 4.9904 12.8036 4.9112 12.8168 4.8596C12.8425 4.7518 12.8977 4.65326 12.976 4.57488C13.0544 4.49651 13.153 4.44138 13.2608 4.4156M5.29995 11.6H8.29995C8.57475 11.6 8.81115 11.6 9.01995 11.6492C9.34319 11.7264 9.63873 11.8917 9.87383 12.1265C10.1089 12.3614 10.2744 12.6568 10.352 12.98C10.4 13.1888 10.4 13.424 10.4 13.7V16.7C10.4 16.9748 10.4 17.2112 10.3508 17.42C10.2735 17.7432 10.1083 18.0388 9.8734 18.2739C9.63851 18.509 9.34312 18.6745 9.01995 18.752C8.81115 18.8 8.57595 18.8 8.29995 18.8H5.29995C5.02515 18.8 4.78875 18.8 4.57995 18.7508C4.25671 18.6736 3.96117 18.5083 3.72607 18.2735C3.49096 18.0386 3.32548 17.7432 3.24795 17.42C3.19995 17.2112 3.19995 16.976 3.19995 16.7V13.7C3.19995 13.4252 3.19995 13.1888 3.24915 12.98C3.32639 12.6568 3.49161 12.3612 3.7265 12.1261C3.96139 11.891 4.25678 11.7255 4.57995 11.648C4.78875 11.6 5.02395 11.6 5.29995 11.6ZM5.35995 12.8C4.99035 12.8 4.91115 12.8036 4.85955 12.8168C4.75176 12.8426 4.65321 12.8977 4.57483 12.9761C4.49646 13.0545 4.44133 13.153 4.41555 13.2608C4.40475 13.31 4.39995 13.3892 4.39995 13.76V16.64C4.39995 17.0096 4.40355 17.0888 4.41675 17.1404C4.44253 17.2482 4.49766 17.3467 4.57603 17.4251C4.65441 17.5035 4.75296 17.5586 4.86075 17.5844C4.91115 17.5964 4.99035 17.6 5.35995 17.6H8.23995C8.60955 17.6 8.68875 17.5952 8.74035 17.5832C8.84815 17.5574 8.9467 17.5023 9.02507 17.4239C9.10344 17.3455 9.15857 17.247 9.18435 17.1392C9.19635 17.0888 9.19995 17.0096 9.19995 16.64V13.76C9.19995 13.3904 9.19635 13.3112 9.18315 13.2596C9.15737 13.1518 9.10224 13.0533 9.02387 12.9749C8.9455 12.8965 8.84695 12.8414 8.73915 12.8156C8.68995 12.8048 8.61075 12.8 8.23995 12.8H5.35995ZM13.76 11.6H13.7C13.4252 11.6 13.1888 11.6 12.98 11.6492C12.6567 11.7264 12.3612 11.8917 12.1261 12.1265C11.891 12.3614 11.7255 12.6568 11.648 12.98C11.6 13.1888 11.6 13.424 11.6 13.7V16.7C11.6 16.9748 11.6 17.2112 11.6492 17.42C11.7264 17.7432 11.8916 18.0388 12.1265 18.2739C12.3614 18.509 12.6568 18.6745 12.98 18.752C13.1888 18.8012 13.4252 18.8012 13.7 18.8012H16.7C16.9748 18.8012 17.2112 18.8012 17.42 18.752C17.743 18.6746 18.0383 18.5093 18.2731 18.2744C18.508 18.0395 18.6733 17.7442 18.7508 17.4212C18.8 17.2124 18.8 16.976 18.8 16.7012V13.7C18.8 13.4252 18.8 13.1888 18.7508 12.98C18.6735 12.6568 18.5083 12.3612 18.2734 12.1261C18.0385 11.891 17.7431 11.7255 17.42 11.648C17.2112 11.6 16.976 11.6 16.7 11.6H16.64H13.76ZM13.2596 12.8168C13.3112 12.8048 13.3916 12.8 13.76 12.8H16.64C17.0096 12.8 17.0888 12.8036 17.1404 12.8168C17.2481 12.8426 17.3467 12.8977 17.4251 12.9761C17.5034 13.0545 17.5586 13.153 17.5844 13.2608C17.5964 13.3112 17.6 13.3904 17.6 13.76V16.64C17.6 17.0096 17.5952 17.0888 17.5832 17.1404C17.5574 17.2482 17.5022 17.3467 17.4239 17.4251C17.3455 17.5035 17.2469 17.5586 17.1392 17.5844C17.0888 17.5964 17.0096 17.6 16.64 17.6H13.76C13.3904 17.6 13.3112 17.5952 13.2596 17.5832C13.1518 17.5574 13.0532 17.5023 12.9748 17.4239C12.8965 17.3455 12.8413 17.247 12.8156 17.1392C12.8048 17.09 12.8 17.0108 12.8 16.64V13.76C12.8 13.3904 12.8036 13.3112 12.8168 13.2596C12.8425 13.1518 12.8977 13.0533 12.976 12.9749C13.0544 12.8965 13.153 12.8414 13.2608 12.8156" fill="#3E3E3E"/>
<path d="M5.35995 3.2H5.29995C5.02515 3.2 4.78875 3.2 4.57995 3.2492C4.25671 3.32644 3.96117 3.49166 3.72607 3.72655C3.49096 3.96144 3.32548 4.25683 3.24795 4.58C3.19995 4.7888 3.19995 5.024 3.19995 5.3V8.3C3.19995 8.5748 3.19995 8.8112 3.24915 9.02C3.32639 9.34324 3.49161 9.63878 3.7265 9.87388C3.96139 10.109 4.25678 10.2745 4.57995 10.352C4.78875 10.4 5.02395 10.4 5.29995 10.4H8.29995C8.57475 10.4 8.81115 10.4 9.01995 10.3508C9.34319 10.2736 9.63873 10.1083 9.87383 9.87345C10.1089 9.63856 10.2744 9.34317 10.352 9.02C10.4 8.8112 10.4 8.576 10.4 8.3V5.3C10.4 5.0252 10.4 4.7888 10.3508 4.58C10.2735 4.25676 10.1083 3.96122 9.8734 3.72612C9.63851 3.49101 9.34312 3.32553 9.01995 3.248C8.81115 3.2 8.57595 3.2 8.29995 3.2H8.23995H5.35995Z" fill="#3E3E3E"/>
<path d="M13.76 3.2H13.7C13.4252 3.2 13.1888 3.2 12.98 3.2492C12.6567 3.32644 12.3612 3.49166 12.1261 3.72655C11.891 3.96144 11.7255 4.25683 11.648 4.58C11.6 4.7888 11.6 5.024 11.6 5.3V8.3C11.6 8.5748 11.6 8.8112 11.6492 9.02C11.7264 9.34324 11.8916 9.63878 12.1265 9.87388C12.3614 10.109 12.6568 10.2745 12.98 10.352C13.1888 10.4 13.424 10.4 13.7 10.4H16.7C16.9748 10.4 17.2112 10.4 17.42 10.3508C17.7432 10.2736 18.0387 10.1083 18.2738 9.87345C18.5089 9.63856 18.6744 9.34317 18.752 9.02C18.8 8.8112 18.8 8.576 18.8 8.3V5.3C18.8 5.0252 18.8 4.7888 18.7508 4.58C18.6735 4.25676 18.5083 3.96122 18.2734 3.72612C18.0385 3.49101 17.7431 3.32553 17.42 3.248C17.2112 3.2 16.976 3.2 16.7 3.2H16.64H13.76Z" fill="#3E3E3E"/>
<path d="M13.76 11.6H13.7C13.4252 11.6 13.1888 11.6 12.98 11.6492C12.6567 11.7264 12.3612 11.8917 12.1261 12.1265C11.891 12.3614 11.7255 12.6568 11.648 12.98C11.6 13.1888 11.6 13.424 11.6 13.7V16.7C11.6 16.9748 11.6 17.2112 11.6492 17.42C11.7264 17.7432 11.8916 18.0388 12.1265 18.2739C12.3614 18.509 12.6568 18.6745 12.98 18.752C13.1888 18.8012 13.4252 18.8012 13.7 18.8012H16.7C16.9748 18.8012 17.2112 18.8012 17.42 18.752C17.743 18.6746 18.0383 18.5093 18.2731 18.2744C18.508 18.0395 18.6733 17.7442 18.7508 17.4212C18.8 17.2124 18.8 16.976 18.8 16.7012V13.7C18.8 13.4252 18.8 13.1888 18.7508 12.98C18.6735 12.6568 18.5083 12.3612 18.2734 12.1261C18.0385 11.891 17.7431 11.7255 17.42 11.648C17.2112 11.6 16.976 11.6 16.7 11.6H16.64H13.76Z" fill="#3E3E3E"/>
<path d="M5.35995 12.8C4.99035 12.8 4.91115 12.8036 4.85955 12.8168C4.75176 12.8426 4.65321 12.8977 4.57483 12.9761C4.49646 13.0545 4.44133 13.153 4.41555 13.2608C4.40475 13.31 4.39995 13.3892 4.39995 13.76V16.64C4.39995 17.0096 4.40355 17.0888 4.41675 17.1404C4.44253 17.2482 4.49766 17.3467 4.57603 17.4251C4.65441 17.5035 4.75296 17.5586 4.86075 17.5844C4.91115 17.5964 4.99035 17.6 5.35995 17.6H8.23995C8.60955 17.6 8.68875 17.5952 8.74035 17.5832C8.84815 17.5574 8.9467 17.5023 9.02507 17.4239C9.10344 17.3455 9.15857 17.247 9.18435 17.1392C9.19635 17.0888 9.19995 17.0096 9.19995 16.64V13.76C9.19995 13.3904 9.19635 13.3112 9.18315 13.2596C9.15737 13.1518 9.10224 13.0533 9.02387 12.9749C8.9455 12.8965 8.84695 12.8414 8.73915 12.8156C8.68995 12.8048 8.61075 12.8 8.23995 12.8H5.35995Z" fill="#3E3E3E"/>
</svg>
